solid Exported from Blender-2.78 (sub 0)
facet normal -1.000000 0.000000 0.000000
outer loop
vertex 0.000000 0.000000 0.050000
vertex 0.000000 0.000000 0.075000
vertex 0.000000 0.075000 0.075000
endloop
endfacet
facet normal -1.000000 0.000000 0.000000
outer loop
vertex 0.000000 0.075000 0.075000
vertex 0.000000 0.075000 0.050000
vertex 0.000000 0.000000 0.050000
endloop
endfacet
facet normal 0.000000 1.000000 0.000000
outer loop
vertex 0.000000 0.075000 0.050000
vertex 0.000000 0.075000 0.075000
vertex 0.231700 0.075000 0.075000
endloop
endfacet
facet normal 0.000000 1.000000 -0.000001
outer loop
vertex 0.231700 0.075000 0.075000
vertex 0.275000 0.075000 0.050000
vertex 0.000000 0.075000 0.050000
endloop
endfacet
facet normal 0.500011 0.000000 0.866019
outer loop
vertex 0.275000 0.075000 0.050000
vertex 0.231700 0.075000 0.075000
vertex 0.231700 0.000000 0.075000
endloop
endfacet
facet normal 0.500011 0.000000 0.866019
outer loop
vertex 0.231700 0.000000 0.075000
vertex 0.275000 0.000000 0.050000
vertex 0.275000 0.075000 0.050000
endloop
endfacet
facet normal 0.000000 -1.000000 0.000000
outer loop
vertex 0.000000 0.000000 0.075000
vertex 0.000000 0.000000 0.050000
vertex 0.275000 0.000000 0.050000
endloop
endfacet
facet normal 0.000000 -1.000000 0.000000
outer loop
vertex 0.275000 0.000000 0.050000
vertex 0.231700 0.000000 0.075000
vertex 0.000000 0.000000 0.075000
endloop
endfacet
facet normal 0.000000 0.000000 -1.000000
outer loop
vertex 0.275000 0.000000 0.050000
vertex 0.000000 0.000000 0.050000
vertex 0.000000 0.075000 0.050000
endloop
endfacet
facet normal 0.000000 0.000000 -1.000000
outer loop
vertex 0.000000 0.075000 0.050000
vertex 0.275000 0.075000 0.050000
vertex 0.275000 0.000000 0.050000
endloop
endfacet
facet normal 0.000000 0.000000 1.000000
outer loop
vertex 0.231700 0.075000 0.075000
vertex 0.000000 0.075000 0.075000
vertex 0.000000 0.000000 0.075000
endloop
endfacet
facet normal 0.000000 0.000000 1.000000
outer loop
vertex 0.000000 0.000000 0.075000
vertex 0.231700 0.000000 0.075000
vertex 0.231700 0.075000 0.075000
endloop
endfacet
endsolid Exported from Blender-2.78 (sub 0)
